<svg fill="none" height="405" viewBox="0 0 405 405" width="405" xmlns="http://www.w3.org/2000/svg">
    <rect fill="url(#paint0_linear_203_166)" height="404.667" rx="120" width="404.667" x="0.0098877"
        y="0.333374" />
    <circle cx="202.5" cy="132" fill="#EB0102" r="43.0002" />
    <path clip-rule="evenodd"
        d="M139.377 299.623C138.513 299.087 138 298.136 138 297.12V175.142C138 173.485 139.343 172.142 141 172.142H156.481C157.474 172.142 158.397 172.637 158.98 173.441C160.64 175.732 162.483 177.893 164.493 179.903C169.484 184.894 175.41 188.854 181.931 191.555C188.452 194.256 195.442 195.646 202.5 195.646C209.559 195.646 216.548 194.256 223.07 191.555C229.591 188.854 235.516 184.894 240.507 179.903C242.517 177.893 244.36 175.732 246.021 173.441C246.603 172.637 247.527 172.142 248.52 172.142H264C265.657 172.142 267 173.485 267 175.142V297.12C267 298.137 266.488 299.087 265.624 299.623C265.424 299.747 265.223 299.87 265.021 299.993C256.811 304.984 247.063 308.943 236.336 311.645C225.609 314.346 214.111 315.736 202.5 315.736C190.889 315.736 179.392 314.346 168.664 311.645C157.937 308.943 148.19 304.984 139.98 299.993C139.778 299.87 139.577 299.747 139.377 299.623Z"
        fill="#2C2C2C" fill-rule="evenodd" />
    <g clip-path="url(#clip0_203_166)">
        <path
            d="M235.127 217.71H171.033C169.931 217.71 169.038 218.603 169.038 219.705V231.722C169.038 232.824 169.931 233.717 171.033 233.717H173.044V267.775C173.044 268.877 173.937 269.77 175.039 269.77H231.121C232.223 269.77 233.116 268.877 233.116 267.775V233.717H235.127C236.229 233.717 237.122 232.824 237.122 231.722V219.705C237.122 218.603 236.229 217.71 235.127 217.71ZM229.127 265.781H177.033V233.717H229.127V265.781ZM233.133 229.728H173.027V221.699H233.133V229.728Z"
            fill="#DDDDDD" />
        <path
            d="M199.074 249.741H207.086C210.395 249.741 213.086 247.049 213.086 243.74C213.086 240.431 210.395 237.74 207.086 237.74H199.074C195.765 237.74 193.074 240.431 193.074 243.74C193.074 247.049 195.765 249.741 199.074 249.741ZM199.074 241.729H207.086C208.195 241.729 209.097 242.631 209.097 243.74C209.097 244.849 208.195 245.751 207.086 245.751H199.074C197.965 245.751 197.063 244.849 197.063 243.74C197.063 242.631 197.965 241.729 199.074 241.729Z"
            fill="#DDDDDD" />
    </g>
    <defs>
        <linearGradient gradientUnits="userSpaceOnUse" id="paint0_linear_203_166" x1="61.7403"
            x2="359.79" y1="5.9612" y2="417.379">
            <stop stop-color="#FFD159" />
            <stop offset="1" stop-color="#F45633" />
        </linearGradient>
        <clipPath id="clip0_203_166">
            <rect fill="white" height="68.0836" transform="translate(169.038 209.698)"
                width="68.0836" />
        </clipPath>
    </defs>
</svg>
